<svg xmlns="http://www.w3.org/2000/svg" version="1.1" xmlns:xlink="http://www.w3.org/1999/xlink" xmlns:svgjs="http://svgjs.com/svgjs" width="1440" height="560" preserveAspectRatio="none" viewBox="0 0 1440 560"><g mask="url(&quot;#SvgjsMask1015&quot;)" fill="none"><rect width="1440" height="560" x="0" y="0" fill="rgba(229, 229, 229, 1)"></rect><path d="M132.53 92.69L197.49 130.19L197.49 205.19L132.53 242.69L67.58 205.19L67.58 130.19zM132.53 542.69L197.49 580.19L197.49 655.19L132.53 692.69L67.58 655.19L67.58 580.19zM587.21 -19.81L652.16 17.69L652.16 92.69L587.21 130.19L522.26 92.69L522.26 17.69zM1106.84 -19.81L1171.79 17.69L1171.79 92.69L1106.84 130.19L1041.89 92.69L1041.89 17.69zM1171.79 317.69L1236.75 355.19L1236.75 430.19L1171.79 467.69L1106.84 430.19L1106.84 355.19zM1236.75 205.19L1301.7 242.69L1301.7 317.69L1236.75 355.19L1171.79 317.69L1171.79 242.69zM1236.75 430.19L1301.7 467.69L1301.7 542.69L1236.75 580.19L1171.79 542.69L1171.79 467.69zM1366.65 -19.81L1431.61 17.69L1431.61 92.69L1366.65 130.19L1301.7 92.69L1301.7 17.69zM1431.61 317.69L1496.56 355.19L1496.56 430.19L1431.61 467.69L1366.65 430.19L1366.65 355.19zM1366.65 430.19L1431.61 467.69L1431.61 542.69L1366.65 580.19L1301.7 542.69L1301.7 467.69zM1431.61 542.69L1496.56 580.19L1496.56 655.19L1431.61 692.69L1366.65 655.19L1366.65 580.19zM1496.56 205.19L1561.52 242.69L1561.52 317.69L1496.56 355.19L1431.61 317.69L1431.61 242.69z" stroke="rgba(52, 161, 127, 1)" stroke-width="2"></path><path d="M125.03 92.69 a7.5 7.5 0 1 0 15 0 a7.5 7.5 0 1 0 -15 0zM189.99 130.19 a7.5 7.5 0 1 0 15 0 a7.5 7.5 0 1 0 -15 0zM189.99 205.19 a7.5 7.5 0 1 0 15 0 a7.5 7.5 0 1 0 -15 0zM125.03 242.69 a7.5 7.5 0 1 0 15 0 a7.5 7.5 0 1 0 -15 0zM60.08 205.19 a7.5 7.5 0 1 0 15 0 a7.5 7.5 0 1 0 -15 0zM60.08 130.19 a7.5 7.5 0 1 0 15 0 a7.5 7.5 0 1 0 -15 0zM125.03 542.69 a7.5 7.5 0 1 0 15 0 a7.5 7.5 0 1 0 -15 0zM189.99 580.19 a7.5 7.5 0 1 0 15 0 a7.5 7.5 0 1 0 -15 0zM189.99 655.19 a7.5 7.5 0 1 0 15 0 a7.5 7.5 0 1 0 -15 0zM125.03 692.69 a7.5 7.5 0 1 0 15 0 a7.5 7.5 0 1 0 -15 0zM60.08 655.19 a7.5 7.5 0 1 0 15 0 a7.5 7.5 0 1 0 -15 0zM60.08 580.19 a7.5 7.5 0 1 0 15 0 a7.5 7.5 0 1 0 -15 0zM579.71 -19.81 a7.5 7.5 0 1 0 15 0 a7.5 7.5 0 1 0 -15 0zM644.66 17.69 a7.5 7.5 0 1 0 15 0 a7.5 7.5 0 1 0 -15 0zM644.66 92.69 a7.5 7.5 0 1 0 15 0 a7.5 7.5 0 1 0 -15 0zM579.71 130.19 a7.5 7.5 0 1 0 15 0 a7.5 7.5 0 1 0 -15 0zM514.76 92.69 a7.5 7.5 0 1 0 15 0 a7.5 7.5 0 1 0 -15 0zM514.76 17.69 a7.5 7.5 0 1 0 15 0 a7.5 7.5 0 1 0 -15 0zM1099.34 -19.81 a7.5 7.5 0 1 0 15 0 a7.5 7.5 0 1 0 -15 0zM1164.29 17.69 a7.5 7.5 0 1 0 15 0 a7.5 7.5 0 1 0 -15 0zM1164.29 92.69 a7.5 7.5 0 1 0 15 0 a7.5 7.5 0 1 0 -15 0zM1099.34 130.19 a7.5 7.5 0 1 0 15 0 a7.5 7.5 0 1 0 -15 0zM1034.39 92.69 a7.5 7.5 0 1 0 15 0 a7.5 7.5 0 1 0 -15 0zM1034.39 17.69 a7.5 7.5 0 1 0 15 0 a7.5 7.5 0 1 0 -15 0zM1164.29 317.69 a7.5 7.5 0 1 0 15 0 a7.5 7.5 0 1 0 -15 0zM1229.25 355.19 a7.5 7.5 0 1 0 15 0 a7.5 7.5 0 1 0 -15 0zM1229.25 430.19 a7.5 7.5 0 1 0 15 0 a7.5 7.5 0 1 0 -15 0zM1164.29 467.69 a7.5 7.5 0 1 0 15 0 a7.5 7.5 0 1 0 -15 0zM1099.34 430.19 a7.5 7.5 0 1 0 15 0 a7.5 7.5 0 1 0 -15 0zM1099.34 355.19 a7.5 7.5 0 1 0 15 0 a7.5 7.5 0 1 0 -15 0zM1229.25 205.19 a7.5 7.5 0 1 0 15 0 a7.5 7.5 0 1 0 -15 0zM1294.2 242.69 a7.5 7.5 0 1 0 15 0 a7.5 7.5 0 1 0 -15 0zM1294.2 317.69 a7.5 7.5 0 1 0 15 0 a7.5 7.5 0 1 0 -15 0zM1164.29 242.69 a7.5 7.5 0 1 0 15 0 a7.5 7.5 0 1 0 -15 0zM1294.2 467.69 a7.5 7.5 0 1 0 15 0 a7.5 7.5 0 1 0 -15 0zM1294.2 542.69 a7.5 7.5 0 1 0 15 0 a7.5 7.5 0 1 0 -15 0zM1229.25 580.19 a7.5 7.5 0 1 0 15 0 a7.5 7.5 0 1 0 -15 0zM1164.29 542.69 a7.5 7.5 0 1 0 15 0 a7.5 7.5 0 1 0 -15 0zM1359.15 -19.81 a7.5 7.5 0 1 0 15 0 a7.5 7.5 0 1 0 -15 0zM1424.11 17.69 a7.5 7.5 0 1 0 15 0 a7.5 7.5 0 1 0 -15 0zM1424.11 92.69 a7.5 7.5 0 1 0 15 0 a7.5 7.5 0 1 0 -15 0zM1359.15 130.19 a7.5 7.5 0 1 0 15 0 a7.5 7.5 0 1 0 -15 0zM1294.2 92.69 a7.5 7.5 0 1 0 15 0 a7.5 7.5 0 1 0 -15 0zM1294.2 17.69 a7.5 7.5 0 1 0 15 0 a7.5 7.5 0 1 0 -15 0zM1424.11 317.69 a7.5 7.5 0 1 0 15 0 a7.5 7.5 0 1 0 -15 0zM1489.06 355.19 a7.5 7.5 0 1 0 15 0 a7.5 7.5 0 1 0 -15 0zM1489.06 430.19 a7.5 7.5 0 1 0 15 0 a7.5 7.5 0 1 0 -15 0zM1424.11 467.69 a7.5 7.5 0 1 0 15 0 a7.5 7.5 0 1 0 -15 0zM1359.15 430.19 a7.5 7.5 0 1 0 15 0 a7.5 7.5 0 1 0 -15 0zM1359.15 355.19 a7.5 7.5 0 1 0 15 0 a7.5 7.5 0 1 0 -15 0zM1424.11 542.69 a7.5 7.5 0 1 0 15 0 a7.5 7.5 0 1 0 -15 0zM1359.15 580.19 a7.5 7.5 0 1 0 15 0 a7.5 7.5 0 1 0 -15 0zM1489.06 580.19 a7.5 7.5 0 1 0 15 0 a7.5 7.5 0 1 0 -15 0zM1489.06 655.19 a7.5 7.5 0 1 0 15 0 a7.5 7.5 0 1 0 -15 0zM1424.11 692.69 a7.5 7.5 0 1 0 15 0 a7.5 7.5 0 1 0 -15 0zM1359.15 655.19 a7.5 7.5 0 1 0 15 0 a7.5 7.5 0 1 0 -15 0zM1489.06 205.19 a7.5 7.5 0 1 0 15 0 a7.5 7.5 0 1 0 -15 0zM1554.02 242.69 a7.5 7.5 0 1 0 15 0 a7.5 7.5 0 1 0 -15 0zM1554.02 317.69 a7.5 7.5 0 1 0 15 0 a7.5 7.5 0 1 0 -15 0zM1424.11 242.69 a7.5 7.5 0 1 0 15 0 a7.5 7.5 0 1 0 -15 0z" fill="rgba(52, 161, 127, 1)"></path><path d="M11.38 -49.67L54.68 -24.67L54.68 25.33L11.38 50.33L-31.92 25.33L-31.92 -24.67zM11.38 250.33L54.68 275.33L54.68 325.33L11.38 350.33L-31.92 325.33L-31.92 275.33zM54.68 325.33L97.98 350.33L97.98 400.33L54.68 425.33L11.38 400.33L11.38 350.33zM97.98 -49.67L141.29 -24.67L141.29 25.33L97.98 50.33L54.68 25.33L54.68 -24.67zM141.29 175.33L184.59 200.33L184.59 250.33L141.29 275.33L97.98 250.33L97.98 200.33zM97.98 400.33L141.29 425.33L141.29 475.33L97.98 500.33L54.68 475.33L54.68 425.33zM184.59 250.33L227.89 275.33L227.89 325.33L184.59 350.33L141.29 325.33L141.29 275.33zM227.89 475.33L271.19 500.33L271.19 550.33L227.89 575.33L184.59 550.33L184.59 500.33zM487.71 325.33L531.01 350.33L531.01 400.33L487.71 425.33L444.41 400.33L444.41 350.33zM444.41 400.33L487.71 425.33L487.71 475.33L444.41 500.33L401.1 475.33L401.1 425.33zM531.01 -49.67L574.31 -24.67L574.31 25.33L531.01 50.33L487.71 25.33L487.71 -24.67zM574.31 475.33L617.62 500.33L617.62 550.33L574.31 575.33L531.01 550.33L531.01 500.33zM617.62 250.33L660.92 275.33L660.92 325.33L617.62 350.33L574.31 325.33L574.31 275.33zM747.52 25.33L790.83 50.33L790.83 100.33L747.52 125.33L704.22 100.33L704.22 50.33zM790.83 250.33L834.13 275.33L834.13 325.33L790.83 350.33L747.52 325.33L747.52 275.33zM877.43 -49.67L920.73 -24.67L920.73 25.33L877.43 50.33L834.13 25.33L834.13 -24.67zM1007.34 175.33L1050.64 200.33L1050.64 250.33L1007.34 275.33L964.04 250.33L964.04 200.33zM1050.64 -49.67L1093.94 -24.67L1093.94 25.33L1050.64 50.33L1007.34 25.33L1007.34 -24.67zM1050.64 250.33L1093.94 275.33L1093.94 325.33L1050.64 350.33L1007.34 325.33L1007.34 275.33zM1137.25 -49.67L1180.55 -24.67L1180.55 25.33L1137.25 50.33L1093.94 25.33L1093.94 -24.67zM1180.55 25.33L1223.85 50.33L1223.85 100.33L1180.55 125.33L1137.25 100.33L1137.25 50.33zM1137.25 100.33L1180.55 125.33L1180.55 175.33L1137.25 200.33L1093.94 175.33L1093.94 125.33zM1267.15 175.33L1310.46 200.33L1310.46 250.33L1267.15 275.33L1223.85 250.33L1223.85 200.33zM1353.76 325.33L1397.06 350.33L1397.06 400.33L1353.76 425.33L1310.46 400.33L1310.46 350.33zM1440.36 175.33L1483.67 200.33L1483.67 250.33L1440.36 275.33L1397.06 250.33L1397.06 200.33z" stroke="rgba(124, 152, 182, 1)" stroke-width="2"></path></g><defs><mask id="SvgjsMask1015"><rect width="1440" height="560" fill="#ffffff"></rect></mask></defs></svg>