<svg xmlns="http://www.w3.org/2000/svg" version="1.1" xmlns:xlink="http://www.w3.org/1999/xlink" xmlns:svgjs="http://svgjs.com/svgjs" width="1440" height="560" preserveAspectRatio="none" viewBox="0 0 1440 560"><g mask="url(&quot;#SvgjsMask1006&quot;)" fill="none"><rect width="1440" height="560" x="0" y="0" fill="rgba(124, 152, 182, 1)"></rect><circle r="7.89" cx="470.72999999999996" cy="21.14" filter="url(#SvgjsFilter1007)" fill="rgba(254, 254, 255, 1)"></circle><circle r="7.64" cx="854.53" cy="188.35" filter="url(#SvgjsFilter1007)" fill="rgba(254, 254, 255, 1)"></circle><circle r="5.38" cx="686.96" cy="302.2" filter="url(#SvgjsFilter1007)" fill="rgba(254, 254, 255, 1)"></circle><circle r="6.355" cx="1033.185" cy="238.565" filter="url(#SvgjsFilter1007)" fill="rgba(254, 254, 255, 1)"></circle><circle r="8.86" cx="431.96000000000004" cy="540.3100000000001" filter="url(#SvgjsFilter1007)" fill="rgba(254, 254, 255, 1)"></circle><circle r="7.42" cx="689.75" cy="483.63" filter="url(#SvgjsFilter1007)" fill="rgba(254, 254, 255, 1)"></circle><circle r="6.395" cx="1066.115" cy="40.69499999999999" filter="url(#SvgjsFilter1007)" fill="rgba(254, 254, 255, 1)"></circle><circle r="9.3" cx="499.91" cy="329.15000000000003" filter="url(#SvgjsFilter1007)" fill="rgba(254, 254, 255, 1)"></circle><circle r="6.94" cx="1153.03" cy="363.33" filter="url(#SvgjsFilter1007)" fill="rgba(254, 254, 255, 1)"></circle><circle r="5.38" cx="950.46" cy="336.71" filter="url(#SvgjsFilter1007)" fill="rgba(254, 254, 255, 1)"></circle><circle r="8.625" cx="620.425" cy="314.305" filter="url(#SvgjsFilter1007)" fill="rgba(254, 254, 255, 1)"></circle><circle r="7.935" cx="463.935" cy="445.635" filter="url(#SvgjsFilter1007)" fill="rgba(254, 254, 255, 1)"></circle><circle r="9.09" cx="1147.6299999999999" cy="286.71" filter="url(#SvgjsFilter1007)" fill="rgba(254, 254, 255, 1)"></circle><circle r="6.35" cx="788.83" cy="255.22" filter="url(#SvgjsFilter1007)" fill="rgba(254, 254, 255, 1)"></circle><circle r="6.19" cx="492.79" cy="266.66" filter="url(#SvgjsFilter1007)" fill="rgba(254, 254, 255, 1)"></circle><circle r="5.215" cx="931.575" cy="184.655" filter="url(#SvgjsFilter1007)" fill="rgba(254, 254, 255, 1)"></circle><circle r="6.755" cx="652.045" cy="497.105" filter="url(#SvgjsFilter1007)" fill="rgba(254, 254, 255, 1)"></circle><circle r="7.875" cx="290.085" cy="324.065" filter="url(#SvgjsFilter1007)" fill="rgba(254, 254, 255, 1)"></circle><circle r="5.475" cx="584.445" cy="191.135" filter="url(#SvgjsFilter1007)" fill="rgba(254, 254, 255, 1)"></circle><circle r="5.17" cx="384.1" cy="236.51999999999998" filter="url(#SvgjsFilter1007)" fill="rgba(254, 254, 255, 1)"></circle><path d="M118.7 467.3L164 477.5 185.9 512.6 144.6 514.1 110.8 482.2C110.8 482.2 110.3 481.9 110.3 481.9 109.3 481.4 107.8 481.8 106.8 482.6 105.5 483.8 105.7 485.8 107.2 486.6L136.8 514.4 116.7 515.1 103.5 503C103.5 503 103 502.8 103 502.8 102 502.2 100.5 502.7 99.5 503.4 98.2 504.6 98.4 506.7 99.9 507.4L108.7 515.9 93.9 516.3C92.7 516.3 91.1 518 91.1 519.2 90.8 521 92.8 522 94 522.1L108.8 521.7 100.3 530.5C99 531.7 99.2 533.7 100.7 534.5 101.9 535.8 103.9 535.6 104.7 534.1L116.8 520.9 136.6 520.7 108.8 550.3C107.5 551.5 107.7 553.5 109.2 554.3 110.4 555.6 112.4 555.4 113.2 553.9L145.2 520.1 186.5 518.7 166.8 555.8 122.1 569.4C120.6 569.9 119.8 571.3 120.3 572.8 120.7 574.4 122.2 575.2 123.7 574.7L163.1 562.7 153.6 580.5 137 585.6C135.5 586 134.7 587.5 135.1 589 135.6 590.5 137.1 591.3 138.6 590.9L150 587.4 142.6 601.2C141.3 602.4 142.3 604.2 143.7 605 145.2 605.8 146.7 605.3 147.5 603.9L154.4 591 157.8 602.4C158.3 603.9 159.8 604.7 161.3 604.2S163.6 602.3 163.1 600.8L158.1 584.1 167.5 566.3 179.6 605.7C180 607.2 181.5 608 183 607.5 184.5 607.1 185.3 605.6 184.9 604.1L171.2 559.4 190.7 522.8 212.6 557.9 202.4 602C202.2 603.8 203.4 605 204.9 605.8 206.6 606.1 207.9 604.9 208.7 603.4L217.7 563.8 228.3 580.9 224.1 598.3C223.8 600 225 601.3 226.5 602.1 228.2 602.4 229.5 601.2 230 600.2L232.6 588.2 240.6 600.7C241.3 601.7 243.3 602.8 244.5 601.6 245.8 600.4 246.6 598.9 245.4 597.6L237.4 585.1 249.4 587.7C251.2 588 252.4 586.8 253 585.8 253 584.5 252.5 583 251.5 582.5 251.5 582.5 251.1 582.2 251.1 582.2L233.6 578 223 560.9 262.6 570C264.4 570.3 265.7 569.1 266.2 568.1 266.2 566.8 265.8 565.3 264.8 564.8 264.8 564.8 264.3 564.5 264.3 564.5L218.9 554.3 197 519.2 238.4 517.7 272.2 549.7C273.4 551 275.4 550.8 276.2 549.3 277.5 548.1 277.3 546.1 275.8 545.3L246.2 517.4 266.3 516.7 279.5 528.8C280.7 530.1 282.7 529.9 283.5 528.4 284.8 527.2 284.6 525.2 283.1 524.4L274.3 515.9 289.1 515.5C290.3 515.6 291.9 513.9 291.9 512.6 291.9 511.4 291.2 510.3 290.2 509.8 289.7 509.5 289.2 509.3 288.5 509.5L273.7 509.9 282.2 501.1C283.5 499.9 283.3 497.9 281.8 497.1 281.8 497.1 281.3 496.8 281.3 496.8 280.3 496.3 278.8 496.7 277.8 497.5L265.7 510.7 245.6 511.4 273.4 481.8C274.7 480.6 274.5 478.6 273 477.8 273 477.8 272.5 477.5 272.5 477.5 271.5 477 270 477.5 269 478.2L237.1 512 195.7 513.4 215.2 476.8 259.9 463.2C261.4 462.7 262.2 461.2 261.7 459.7 261.2 458.2 259.8 457.4 258.2 457.9L219.1 469.4 228.6 451.6 245.3 446.5C246.8 446.1 247.6 444.6 247.1 443.1S245.1 440.8 243.6 441.2L232.3 444.7 239.1 431.8C239.9 430.4 239.4 428.8 238 428.1 236.5 427.3 235 427.7 234.2 429.2L227.3 442.1 223.9 430.7C223.6 429.9 223.4 429.2 222.4 428.7S220.7 428.4 219.9 428.6C218.4 429.1 217.6 430.5 218.1 432.1L223.2 448.7 213.7 466.5 201.7 427.1C201.4 426.4 201.2 425.6 200.2 425.1 199.7 424.8 198.5 424.8 197.7 425 196.2 425.5 195.4 427 195.9 428.5L209.5 473.2 190 509.7 168.1 474.6 178.3 429.3C178.3 428 177.9 426.5 176.9 426 176.9 426 176.4 425.7 176.4 425.7 174.6 425.4 173.4 426.6 172.8 427.6L163.8 467.2 153.2 450.2 157.4 432.8C157.5 431.5 157 430 156 429.5 156 429.5 155.5 429.2 155.5 429.2 153.8 428.9 152.5 430.1 152 431.1L149.4 443.1 141.4 430.6C140.9 430.3 140.7 429.6 140.2 429.3 139.2 428.8 138 428.8 137 429.5 135.7 430.7 134.9 432.2 136.1 433.5L144.1 445.9 132.1 443.4C130.4 443.1 129.1 444.3 128.5 445.3 128.2 447 129.5 448.3 130.5 448.9L147.9 453.1 158.5 470.1 118.9 461.1C117.1 460.8 115.8 462 115.3 463 116 465.3 117 467 118.7 467.3Z" fill="rgba(254, 254, 255, 1)"></path><path d="M527.9 510.2L492.4 528 481.9 524.8 476.9 500.9 485.1 493.2 524.9 495.7C525.3 495.6 525.3 495.6 525.8 495.5 526.7 495.3 527.6 494.6 527.8 493.1 527.5 491.7 526.8 490.9 525.3 490.7L490.5 488.7 503.3 477.2 518.7 477.8C518.7 477.8 519.1 477.7 519.1 477.7 520.1 477.6 520.9 476.9 521.1 475.4 521.4 474.3 520.1 473.1 518.6 473L508.6 472.1 518.1 463.7C519 463.1 519.2 461.6 518.4 460.2S515.7 459.3 514.4 460.1L505.4 468.4 505.8 458.5C505.9 457 504.7 455.8 503.2 455.6 502.2 455.8 500.9 456.6 500.8 458.1L500.1 473.4 486.8 485 488.8 450.3C489 448.8 487.8 447.6 486.7 447.3 485.3 447.6 484 448.4 483.8 449.9L481.9 489.5 473.2 497.2 450.5 489.7 448.2 478.5 469.6 445C470.3 443.9 470 442.5 468.9 441.7S466.3 441.3 465.6 442.4L446.8 471.9 443.1 454.5 451.3 442C452 440.9 451.7 439.5 450.5 438.2S447.9 437.8 447.2 438.9L441.7 447.9 439.1 435.3C438.8 433.8 437.2 433.2 435.7 433.5 434.3 433.8 433.6 434.9 433.9 436.3L436.6 449 428 443.5C426.8 442.3 425.4 442.5 424.7 444.2 424 445.3 424.3 446.7 425.4 447.4L437.9 455.6 441.6 473 412.5 453.6C411.4 452.9 409.5 453.3 408.7 454.4S408.3 456.9 409.4 457.7L443 479.6 445.4 490.8 427.2 506.9 416.6 503.3 398.8 467.8C398 466.5 396.5 466.3 395.1 466.6 393.8 467.3 393.6 468.9 393.9 470.3L409.8 501.3 393.4 495.9 386.6 482.1C385.9 480.8 384.3 480.6 382.9 480.9 382.1 481.6 381.5 483.2 382.2 484.5L386.5 493.4 374.5 489.6C373.4 489.3 372.1 490.1 371.4 491.2 371.2 492.7 372 494 373 494.3L385.1 498.1 375.8 503C375 503.7 374.3 505.3 375 506.1 375.3 507.5 376.3 507.8 377.7 507.5 377.7 507.5 378.2 507.4 378.2 507.4L392 500.6 408.3 506 377.3 521.8C376 522.6 375.3 523.7 376 525 376.8 526.4 377.8 526.6 378.8 526.4 379.3 526.3 379.3 526.3 379.3 526.3L415.1 508 425.7 511.6 430.8 535.6 422.4 542.7 382.3 540.9C381.3 540.6 380.1 541.9 379.8 542.9 379.6 544.4 380.9 545.6 382.4 545.8L417.1 547.8 404.3 559.3 389 558.6C387.5 558.4 386.2 559.2 386.5 560.6 386.3 562.1 387.5 563.3 388.6 563.6L398.9 563.9 389.4 572.3C388.7 573.4 388.5 574.9 389.3 576.2 389.8 576.6 390.9 576.9 391.8 576.7 392.3 576.6 392.3 576.6 392.7 576L402.2 567.6 401.9 578C401.7 579.5 402.9 580.2 403.9 580.5 404.4 580.4 404.4 580.4 404.8 580.3 405.8 580.1 406.6 579.4 406.9 578.4L407.6 563 420.4 551.5 418.4 586.3C418.7 587.7 419.4 589 420.8 588.7 421.4 589.1 421.4 589.1 421.9 589 422.8 588.8 423.6 587.6 423.8 586.6L425.7 546.5 434 539.3 457.1 546.7 459.4 557.5 437.5 591.1C436.8 592.2 437.2 594.1 438.3 594.8S441.3 595.2 442.1 594L460.9 564.6 464.4 581.5 456.4 594.5C455.6 595.6 455.9 597 457.1 597.7 458.2 598.5 459.6 598.2 460.4 597.1L465.9 588.5 468.6 601.2C468.8 602.1 470 603.4 471.4 603.1 472.9 602.8 474 601.1 473.8 600.1L471.1 587.4 479.6 593C480.2 593.4 480.8 593.7 481.2 593.6 482.2 593.4 482.5 592.9 482.9 592.3 483.7 591.2 483.4 589.8 482.2 589L469.6 580.4 466.1 563.5 495.2 582.9C495.7 583.2 496.2 583.1 497.1 582.9 497.6 582.8 498.1 582.7 498.4 582.2 499.2 581 498.8 579.2 497.6 578.4L464.6 556.4 462.3 545.6 480 529.6 491 532.7 508.8 568.7C509.5 569.5 510.7 570.3 511.6 570.1 512.1 570 512.1 570 512 569.5 513.4 569.2 514 567.6 513.2 566.3L497.4 535.3 514.2 540.6 521 554.4C521.7 555.2 522.7 555.5 523.7 555.3 523.7 555.3 524.1 555.2 524.1 555.2 525.6 554.9 526.2 553.3 525.4 552L520.5 542.7 532.6 546.5C533.2 546.9 533.7 546.8 534.1 546.7 535.1 546.5 535.9 545.8 535.8 545.4 536.5 543.8 535.7 542.4 534.6 541.7L522.5 537.9 531.4 533.5C532.7 532.8 533.3 531.2 532.6 529.9 531.9 529 530.3 528.4 529.4 529L515.7 535.9 499.3 530.5 530.3 514.6C531.6 513.9 531.8 512.4 531.5 510.9 530.8 510.1 529.2 509.5 527.9 510.2ZM472.3 504.8L476.2 523.1 476.8 525.9 474.7 527.8 461.1 540 458.6 542 455.9 541.1 438.6 535.4 435.9 534.5 435.3 531.7 431.5 513.4 430.9 510.6 432.9 508.7 446.5 496.5 448.6 494.6 451.7 495.4 469.1 501 471.7 502 472.3 504.8Z" fill="rgba(254, 254, 255, 1)"></path><path d="M964.6 439.2L1016 426.7 1028.7 433.9 1028.1 466.6 1015.1 474 964.2 459C963.6 459 963.6 459 962.9 459 961.6 459 960.4 459.6 959.7 461.5 959.6 463.4 960.3 464.7 962.2 465.4L1006.7 478.4 986.7 489.5 967 484C967 484 966.3 484 966.3 484 965 484 963.7 484.6 963.1 486.5 962.4 487.8 963.6 489.7 965.6 490.4L978.3 494.5 963.4 502.5C962.1 503.2 961.5 505.1 962.1 507S965.2 509 967.2 508.4L981.4 500.3 978 513C977.3 515 978.5 516.9 980.4 517.6 981.7 517.6 983.6 517 984.3 515.1L989.8 495.3 1010.5 484.2 997.5 528.8C996.8 530.7 998.1 532.6 999.4 533.3 1001.3 533.3 1003.2 532.7 1003.9 530.8L1018.2 479.8 1031.8 472.4 1059 488.9 1058.8 504.3 1021 541.3C1019.7 542.6 1019.6 544.5 1020.9 545.8S1024.1 547.2 1025.4 545.9L1058.6 513.2 1058.2 536.9 1043.8 550.7C1042.5 552 1042.5 553.9 1043.8 555.8S1046.9 557.2 1048.2 555.9L1058 545.9 1057.7 563.1C1057.7 565.1 1059.6 566.4 1061.5 566.4 1063.4 566.4 1064.7 565.2 1064.7 563.3L1065.1 546 1074.5 555.8C1075.7 557.7 1077.6 557.7 1079 555.8 1080.3 554.6 1080.3 552.7 1079 551.4L1065.2 537 1065.6 513.3 1097.7 547.2C1098.9 548.5 1101.5 548.6 1102.8 547.3S1104.1 544.1 1102.9 542.8L1065.8 504.4 1066.1 489 1094.5 473.5 1107.2 481.4 1119.7 532.9C1120.3 534.8 1122.2 535.5 1124.1 535.5 1126.1 534.9 1126.7 533 1126.8 531.1L1115.4 486.1 1135 498 1139.8 517.9C1140.4 519.8 1142.3 520.5 1144.2 520.5 1145.5 519.9 1146.9 518 1146.2 516.1L1143.3 503.2 1157.8 511.8C1159.1 512.5 1161 511.9 1162.3 510.6 1163 508.7 1162.4 506.8 1161.1 506.1L1146.6 497.5 1160.1 493.9C1161.4 493.3 1162.7 491.4 1162.1 490.1 1162.1 488.2 1160.8 487.5 1158.9 487.5 1158.9 487.5 1158.3 487.5 1158.3 487.5L1138.4 492.2 1118.7 480.4 1163.7 469C1165.7 468.4 1167 467.2 1166.4 465.2 1165.8 463.3 1164.5 462.6 1163.2 462.6 1162.6 462.6 1162.6 462.6 1162.6 462.6L1110.5 475.7 1097.8 467.8 1098.4 435.2 1111.3 428.4 1162.9 442.8C1164.2 443.4 1166.1 442.2 1166.8 440.9 1167.5 439 1166.2 437.1 1164.3 436.4L1119.7 423.4 1139.8 412.3 1159.5 417.7C1161.4 418.4 1163.4 417.8 1163.4 415.9 1164.1 414 1162.8 412 1161.6 411.4L1148.2 407.9 1163.1 399.9C1164.4 398.6 1165 396.7 1164.4 394.8 1163.8 394.1 1162.5 393.5 1161.3 393.4 1160.6 393.4 1160.6 393.4 1160 394.1L1145.1 402.1 1148.5 388.7C1149.2 386.8 1148 385.5 1146.7 384.9 1146 384.9 1146 384.9 1145.4 384.8 1144.1 384.8 1142.8 385.4 1142.2 386.7L1136.7 406.4 1116.7 417.6 1129.6 373C1129.6 371.1 1129 369.2 1127.1 369.1 1126.5 368.5 1126.5 368.5 1125.9 368.5 1124.6 368.5 1123.3 369.7 1122.6 371L1108.2 422.6 1095.3 429.4 1067.4 412.9 1067.7 398.2 1106.1 361.1C1107.4 359.8 1107.5 357.3 1106.2 356S1102.4 354.6 1101.1 355.9L1067.9 388.6 1068.3 365.5 1082.6 351.1C1083.9 349.8 1084 347.9 1082.7 346.6 1081.5 345.3 1079.5 345.2 1078.2 346.5L1068.5 355.9 1068.8 338.7C1068.8 337.4 1067.6 335.4 1065.6 335.4 1063.7 335.4 1061.8 337.2 1061.7 338.5L1061.4 355.8 1052 346C1051.4 345.4 1050.8 344.7 1050.1 344.7 1048.8 344.7 1048.2 345.3 1047.5 346 1046.2 347.2 1046.2 349.1 1047.4 350.4L1061.3 365.4 1060.8 388.4 1028.8 354.6C1028.2 353.9 1027.5 353.9 1026.3 353.9 1025.6 353.9 1025 353.9 1024.3 354.5 1023 355.8 1023 358.3 1024.2 359.6L1060.7 398 1060.4 412.8 1032.6 428.3 1019.3 421 1006.8 368.9C1006.2 367.6 1004.9 366.3 1003.6 366.3 1003 366.3 1003 366.3 1003 366.9 1001.1 366.9 999.7 368.8 1000.4 370.7L1011.7 415.7 991.4 403.8 986.7 383.9C986.1 382.6 984.8 382 983.5 381.9 983.5 381.9 982.9 381.9 982.9 381.9 981 381.9 979.6 383.8 980.2 385.7L983.8 399.2 969.3 390.6C968.6 390 968 390 967.4 390 966.1 389.9 964.8 390.6 964.8 391.2 963.5 393.1 964.1 395 965.3 396.3L979.9 404.9 967 407.9C965.1 408.5 963.8 410.4 964.4 412.3 965 413.6 966.9 414.9 968.2 414.3L988.1 409.5 1007.8 421.4 962.8 432.8C960.8 433.4 960.1 435.3 960.1 437.2 960.7 438.5 962.6 439.8 964.6 439.2ZM1035.2 462.9L1035.6 437.9 1035.7 434.1 1038.9 432.2 1060.3 420.4 1064.1 418.6 1067.3 420.6 1088.2 433.1 1091.4 435.1 1091.3 438.9 1090.9 463.9 1090.8 467.7 1087.6 469.6 1066.2 481.4 1063 483.2 1059.2 481.2 1038.3 468.7 1035.1 466.7 1035.2 462.9Z" fill="rgba(254, 254, 255, 1)"></path><path d="M194.7 158.5L163.4 147.9 159.1 139.8 170.3 122.8 179.6 123.2 201.5 148.1C201.9 148.3 201.9 148.3 202.2 148.6 202.9 149 203.8 149.1 204.8 148.3 205.4 147.3 205.5 146.4 204.7 145.4L185.5 123.7 199.8 124.5 208.4 134C208.4 134 208.8 134.2 208.8 134.2 209.4 134.6 210.3 134.7 211.3 134 212.1 133.5 212.1 132.1 211.3 131.1L205.9 124.7 216.5 125.4C217.4 125.5 218.4 124.7 218.7 123.5S217.7 121.4 216.5 121.1L206.2 120.6 212.3 115C213.3 114.2 213.3 112.8 212.5 111.8 211.8 111.3 210.6 111 209.6 111.8L200.1 120.4 185.5 119.4 207.2 100.2C208.2 99.4 208.2 97.9 207.8 97.2 206.8 96.5 205.5 96.2 204.5 97L179.9 119.1 170.3 118.5 161.4 100.7 166.7 92.6 199 85.7C200.1 85.4 200.8 84.4 200.6 83.3S199.3 81.6 198.2 81.8L169.8 88 177.9 75.6 190.1 73.1C191.2 72.8 191.9 71.8 191.8 70.4S190.6 68.6 189.5 68.9L181 70.9 186.9 61.9C187.6 60.9 187 59.6 186 58.9 185 58.2 183.9 58.5 183.2 59.5L177.3 68.5 175.6 60.2C175.6 58.7 174.6 58.1 173.2 58.7 172.1 58.9 171.5 59.9 171.7 61L174.2 73.2 166.1 85.5 160.5 57C160.2 55.8 158.9 55 157.8 55.2S156 56.4 156.3 57.5L163 90.2 157.7 98.2 137.5 96.9 133.5 88.5 144.1 57.2C144.4 55.9 143.6 55 142.6 54.3 141.4 54 140.4 54.8 139.7 55.8L130.7 83.3 124.3 70.5 128.4 58.4C128.7 57.2 128 56.2 127 55.5 126.1 55.4 124.7 56 124.4 57.2L121.7 65 116.9 55.6C116.4 54.8 115.2 54.5 114.1 54.7 113.1 55.5 112.8 56.7 113.2 57.5L118 66.9 109.7 64.3C108.8 64.2 107.5 64.7 107.4 65.6 106.7 66.6 107.2 67.4 108.2 68 108.2 68 108.5 68.3 108.5 68.3L120.6 72.4 127 85.2 99.5 76.2C98.2 75.9 97.1 76.1 96.8 77.3 96.5 78.5 96.9 79.3 97.6 79.8 97.9 80 97.9 80 97.9 80L129.8 90.4 133.9 98.8 122.7 115.9 113.6 115.2 91.1 90.3C90.7 89.6 89.2 89.6 88.5 90 87.5 90.8 87.5 92.3 88.3 93.2L107.5 115 93.2 114.2 84.6 104.7C83.8 103.7 82.5 103.4 81.9 104.4 80.9 105.2 80.9 106.6 81.4 107.4L87.3 113.7 76.7 113C75.6 113.2 74.6 114 74.3 115.2 74.4 115.7 74.9 116.5 75.5 117 75.9 117.2 75.9 117.2 76.4 117.1L87 117.8 80.7 123.7C79.7 124.5 79.9 125.6 80.4 126.4 80.7 126.6 80.7 126.6 81 126.8 81.7 127.2 82.6 127.3 83.4 126.9L92.8 118.3 107.2 119.1 85.4 138.3C84.8 139.3 84.4 140.5 85.4 141.2 85.6 141.7 85.6 141.7 85.9 142 86.6 142.4 87.7 142.2 88.4 141.7L113.3 119.3 122.4 120 131.6 138 126.5 145.7 93.8 152.5C92.7 152.7 91.9 154 92.1 155.1S93.6 157.1 94.8 156.9L123.2 150.7 115.3 162.7 102.9 165.6C101.8 165.8 101.1 166.8 101.4 167.9 101.6 169 102.6 169.7 103.7 169.5L112 167.8 106.1 176.8C105.6 177.5 105.7 178.9 106.7 179.6 107.7 180.2 109.3 179.9 109.8 179.2L115.7 170.2 117.4 178.5C117.5 179 117.6 179.6 118 179.8 118.6 180.3 119.2 180.1 119.8 180 120.9 179.8 121.5 178.8 121.3 177.7L119 165.2 126.9 153.1 132.5 181.7C132.6 182.3 133 182.5 133.6 182.9 134 183.2 134.3 183.4 134.9 183.3 136 183 136.8 181.7 136.6 180.6L130.2 148.1 135.3 140.4 155.1 141.5 159.7 149.8 148.9 181.5C148.8 182.4 149.1 183.5 149.7 183.9 150.1 184.2 150.1 184.2 150.3 183.8 151.3 184.5 152.6 183.9 152.9 182.7L162 155.1 168.7 168.2 164.6 180.3C164.5 181.2 164.9 182 165.6 182.4 165.6 182.4 165.9 182.6 165.9 182.6 166.9 183.3 168.3 182.7 168.6 181.5L171.2 173.2 176 182.6C176.1 183.1 176.5 183.3 176.8 183.5 177.5 184 178.4 184.1 178.6 183.8 179.9 183.2 180.2 182 180 180.9L175.2 171.5 183 174.2C184.2 174.5 185.5 174 185.8 172.7 185.9 171.8 185.4 170.5 184.5 170.4L172.4 166.3 166 153.4 193.5 162.5C194.8 162.8 195.7 162 196.4 161 196.5 160.1 195.9 158.8 194.7 158.5ZM165.3 122.4L156.7 135.4 155.4 137.4 153.1 137.3 137.9 136.4 135.2 136.1 134.2 134 127.4 120.4 126.4 118.3 127.7 116.3 136.2 103.3 137.6 101.3 139.9 101.4 155.1 102.3 157.4 102.4 158.8 104.7 165.6 118.3 166.6 120.4 165.3 122.4Z" fill="rgba(254, 254, 255, 1)"></path><path d="M954.1 179.2L917.3 204.7 901.3 201.4 913.8 192.9C915.3 192.3 915.3 190.5 914.8 188.9 913.9 188.1 911.9 187.6 911 188.5L893.7 199.9 877.9 197.2 888.5 185.1 909.4 183.7C909.4 183.7 909.9 183.5 909.9 183.5 910.9 183.2 911.6 181.7 911.8 180.5 911.2 178.9 910.3 178 908.5 178.1L893.5 179.2 904.1 167.2 948.5 163.4C948.5 163.4 949.2 163.7 949.2 163.7 950.3 163.4 951 161.9 951.1 160.7 951.1 158.9 949.5 157.7 947.9 158.3L909.1 161.2 921.6 146.1 939 144.8C939 144.8 939 144.8 939.5 144.6 940.5 144.2 941.4 143.3 941.6 142.1 941 140.5 939.9 139.1 938.2 139.1L926.7 140.2 935.9 129.2C937.3 128.2 936.7 126.6 935.8 125.7 934.7 124.3 932.9 124.3 931.7 125.9L922.3 136.4 922 125.2C921.4 123.6 920.3 122.3 918.7 122.8 917 122.8 916.1 123.7 916.1 125.5L917.5 142.8 904.8 157.4 901.7 118.1C901.8 116.9 900.2 115.7 898.4 115.7 897.4 116.1 896 117.2 896 119L899.8 163.3 889.2 175.4 888 160.4C888 158.6 886.6 157.9 884.8 157.9 883.6 157.8 882.4 159.4 882.2 160.6L884.2 181.3 873.8 193.9 868.4 178.6 877.2 160C877.9 158.6 877.4 157 875.9 156.3 875 155.4 872.9 156.2 872.2 157.6L865.7 171.2 860.3 155.9 880 115.7C880.7 114.3 880.1 112.7 878.7 112 877.3 111.3 875.7 111.9 875 113.3L857.7 148.5 851.4 130.5 858.9 114.8C859.6 113.4 859 111.8 857.6 111.1 856.2 110.4 854.6 111 853.9 112.4L848.6 122.6 843.9 109.4C843.4 107.8 842 107.1 840.4 107.7 838.8 108.3 838.1 109.7 838.7 111.3L843.3 124.5 833.3 119.7C831.9 119 830.3 119.6 829.6 121S829.5 124 830.9 124.7L845.9 131.9 852.5 150.4 817.4 133.6C816 132.9 814.4 133.5 813.8 134.9 813.1 136.3 813.6 137.9 815.1 138.6L855.1 157.7 860.5 173.1 846.9 166.6C845.5 165.9 843.9 166.4 843.2 167.9 842.5 169.3 843.1 170.9 844.5 171.6L863.1 180.5 868.3 195.2 853 192.3 841 175.2C840.1 174.3 838.2 173.8 837.3 174.7 835.9 175.8 835.7 177 836.3 178.6L844.8 191 829.6 188.1 804.1 151.4C803 150 801.8 149.8 800.2 150.4 798.8 151.5 798.8 153.2 799.2 154.3L821.4 186.8 802.2 182.9 792.6 169.1C792 167.5 790.2 167.5 788.6 168.1 787.8 169 787.3 171 788.4 172.4L794.5 181.5 780.7 179.2C779.3 178.5 777.9 179.6 777.4 181.6 777.2 182.8 778.3 184.2 779.5 184.4L793.6 187.2 784 193.5C782.6 194.6 782.6 196.4 783.5 197.2 784 198.8 785.3 199 786.3 198.6 786.9 198.4 786.9 198.4 787.4 198.2L801.2 188.6 820.4 192.5 788.4 214.5C786.8 215.1 786.8 216.8 787.4 218.4 788.3 219.3 789.5 219.5 790.6 219.1 791.1 218.9 791.1 218.9 791.1 218.9L828.6 193.8 843.9 196.7 831.4 205.3C830 206.4 829.9 207.6 830.4 209.2 831.3 210.1 832.8 210.7 833.8 210.4 834.4 210.2 834.4 210.2 834.9 210L852 198 867.3 200.9 857.3 212.8 836.6 214.7C834.8 214.8 833.6 216.4 833.4 217.6 834 219.2 835.1 220.6 836.7 220.1L851.7 218.9 841.8 231.3 796.7 234.7C795.5 234.6 794.3 236.2 794.1 237.4 794.7 239 795.7 240.4 797.5 240.4L836.3 237.4 823.6 252 806.8 253.2C805 253.2 803.8 254.8 804.3 256.4 804.2 257.6 805.3 259 807 259L818.5 257.9 809.3 268.9C808.5 269.8 808.5 271.6 809.6 272.9 810.3 273.3 811.6 273.4 812.6 273.1 812.6 273.1 813.1 272.9 813.7 272.7L822.9 261.7 823.9 273.2C823.8 274.5 825.4 275.7 826.6 275.8 827.2 275.7 827.2 275.7 827.2 275.7 828.8 275.1 829.4 273.7 829.1 272.6L827.9 255.8 840.4 240.7 843.5 280C844.1 281.6 845 282.4 846.8 282.4 846.8 282.4 847.3 282.2 847.3 282.2 848.4 281.8 849.2 280.9 849.2 279.2L845.9 234.6 856 222.7 857.2 237.8C857.7 239.3 858.8 240.7 860.4 240.2 860.6 240.7 861.1 240.5 861.1 240.5 862.2 240.2 862.8 238.7 863 237.5L861 216.8 871.6 204.7 876.9 219.5 868 238.1C867.3 239.5 868 241.6 869.5 242.3 870.7 242.5 872.3 241.9 873.2 241L879.5 226.9 884.9 242.2 865.7 282.2C865 283.7 865.6 285.3 867 285.9 868.5 286.6 870 286.1 870.7 284.6L887.5 249.6 894 268.1 886.8 283.1C886.1 284.5 886.7 286.1 888.1 286.8S891.1 286.9 891.8 285.5L896.6 275.5 901.3 288.7C901.8 290.3 903.2 291 904.8 290.4 906.4 289.9 907.1 288.4 906.5 286.9L901.9 273.6 912.4 278.2C913.1 278.6 913.8 278.9 914.4 278.7 914.9 278.6 915.8 277.7 916.1 276.9 916.8 275.5 916.2 273.9 914.8 273.2L899.3 266.3 892.8 247.8 928.3 264.3C929 264.7 929.7 265 930.2 264.8 930.8 264.6 931.6 263.7 932 263 932.7 261.6 932.1 260 930.7 259.3L890.1 240.4 884.7 225.1 898.5 232.1C899.2 232.4 900.3 232.1 900.8 231.9 901.3 231.7 901.9 231.5 902.2 230.8 902.9 229.4 902.1 227.2 900.9 227.1L882.1 217.7 876.9 202.9 892.7 205.6 904.2 223C905.1 223.8 906.5 224.5 907.6 224.1 908.1 223.9 908.1 223.9 907.9 223.4 909.5 222.9 910 220.9 908.9 219.5L900.4 207.1 916.2 209.8 941.3 247.3C942.2 248.2 943.4 248.3 944.5 247.9 945 247.8 945 247.8 945 247.8 946.4 246.7 947.1 245.2 946 243.8L923.8 211.3 943 215.2 952.6 229C953.7 230.4 955 230.6 956 230.2 956 230.2 956.6 230 956.6 230 958 228.9 957.9 227.2 957.6 226.1L950.7 216.7 964.7 219.4C965.2 219.2 965.8 219.1 966.3 218.9 966.8 218.7 967.7 217.8 968 217.1 968 215.3 967.4 213.7 965.7 213.7L951.6 211 961.3 204.6C962.7 203.5 962.6 201.7 962.3 200.7 961.2 199.3 959.4 199.3 957.8 199.9L944 209.5 925 206.1 957 184.1C958.4 183 958.9 181.1 958 180.2 956.9 178.8 955.5 178.1 954.1 179.2Z" fill="rgba(254, 254, 255, 1)"></path><path d="M1434.9 300.1L1418.7 288.2 1430.9 282.4C1432.2 281.9 1433 280 1432.6 278 1431.5 276.6 1429.6 275.8 1428.3 276.3L1412.1 283.7 1397.1 272.6 1430.1 257.9C1432.1 256.8 1433 254.9 1431.8 253.5 1431.4 251.5 1429.5 250.7 1427.5 251.8L1391.1 268.1 1377.3 258.4 1381.2 219.5 1394.7 213.2 1428.8 238.4C1429.5 238.5 1430.1 238.6 1430.7 238.6 1431.4 238.7 1432.7 238.2 1433.4 237.6 1434.9 235.8 1434.4 233.8 1432.6 233L1401.4 210 1418.2 202.6 1434.5 213.9C1434.4 214.5 1435 214.6 1435.7 214.7 1437 214.8 1438.3 214.3 1439.1 213.1 1439.8 211.9 1439.4 209.9 1438.2 208.5L1425 199.5 1445.9 190C1447.2 189.5 1448 187.6 1447.6 185.6 1446.4 184.2 1444.6 183.4 1443.2 183.9L1423.7 192.9 1425 179.5C1425.2 177.6 1423.4 176.2 1422.2 176 1420.3 175.8 1418.2 176.9 1418 178.8L1416.3 196 1399.5 203.4 1403.1 167.7C1403.2 165.8 1402.1 164.4 1400.2 164.2 1398.3 164 1396.9 165.2 1396.7 167.1L1392.8 206.5 1378.6 213.5 1346.8 190.4 1348.2 175.7 1385.3 158.9C1387.3 158.4 1388.1 155.9 1387 154.5 1386.6 152.5 1384.6 152.4 1382.7 152.8L1349 168.1 1350.8 149.6 1367.6 142.3C1369 141.8 1369.9 139.3 1369.3 138S1366.4 135.7 1364.4 136.2L1351.6 142 1353.8 119.7C1354 117.8 1352.2 116.3 1350.3 116.1 1349 116 1347 117.1 1346.8 119L1344.6 141.3 1332.5 133C1331.3 132.3 1329.4 132.1 1328 133.9 1327.2 135.1 1327.6 137.7 1328.8 138.4L1343.8 148.9 1342 167.4 1312 145.8C1310.1 144.9 1308.2 144.8 1306.8 146.5 1306 147.8 1306.4 150.4 1307.6 151.1L1341.2 175.1 1339.8 189.7 1304 206.1 1291.5 196.5 1295.4 157C1295.6 155.1 1294.5 153.7 1292.6 153.5 1290.6 153.3 1288.6 154.4 1288.4 156.3L1284.9 192 1269.8 181.5 1271.5 164.3C1271.7 162.4 1270.6 161 1268.7 160.8 1266.8 160.6 1265.4 161.7 1265.2 163.6L1263.8 177 1246.5 164.3C1245.2 163.6 1242.6 164 1241.9 165.2 1241 167 1240.9 168.9 1242.7 169.8L1260.7 183.1 1246.5 189.4C1245.1 190.6 1244.3 192.4 1244.8 193.8 1245.3 195.1 1246.5 195.9 1247.8 196 1247.8 196 1248.4 196.1 1249.1 195.5L1267.3 187.6 1282.3 198.1 1247.2 214.6C1245.3 215 1244.4 216.9 1245.5 218.9 1246.1 219.6 1246.7 220.3 1248 220.4 1248.6 220.5 1249.2 220.6 1249.9 220.6L1288.3 202.6 1300.3 211.5 1296.4 250.3 1281 257.2 1248.5 234C1246.7 232.5 1244.8 233 1243.9 234.8 1242.5 236 1243 238 1244.8 239.4L1274.2 260.4 1257.3 268.3 1242.9 257.9C1241.7 257.1 1239.8 257.6 1238.4 258.7 1237.5 260.6 1237.3 262.5 1239.2 263.3L1250 271.5 1231.7 279.9C1229.8 280.4 1229.6 282.3 1230 284.3 1230.6 285 1231.8 285.7 1233.1 285.9 1233.1 285.9 1233.7 285.9 1234.4 286L1253.9 277 1252.3 292.9C1252.2 294.2 1253.3 296.2 1255.2 296.4 1257.1 296.6 1258.6 294.8 1258.7 293.5L1260.7 273.8 1277.5 265.8 1273.7 304.7C1273.5 306.6 1275.3 308.1 1277.2 308.2S1280.5 307.3 1280.7 305.4L1284.9 262.7 1299 256.4 1330.8 279.5 1329.2 296.1 1291.5 312.9C1290.1 314 1289.3 315.9 1289.7 317.9 1290.3 318.6 1291.5 319.3 1292.8 319.4 1293.4 319.5 1294 319.6 1294.7 319L1328.4 303.7 1326.6 322.2 1309.7 330.1C1308.4 330.6 1307.6 332.5 1308 334.5 1309.1 335.9 1311 336.7 1312.3 336.2L1325.8 329.8 1323.8 350.2C1323.7 351.5 1325.4 353.6 1326.7 353.7 1328.6 353.9 1330.7 352.2 1330.8 350.9L1332.8 330.5 1344.2 339.4C1344.8 339.4 1345.4 339.5 1346.1 339.5 1347.4 339.7 1348.7 339.2 1349.4 338.6 1350.2 336.7 1349.8 334.8 1348.6 333.4L1333.6 322.9 1335.4 304.4 1365.4 326C1367.2 327.5 1369.2 327 1370 325.8 1371.4 324.1 1371 322.1 1369.8 320.7L1336.2 296.8 1337.8 280.2 1373.6 263.8 1386.2 272.8 1381.9 315.4C1381.7 317.4 1382.9 318.8 1384.8 319 1386.7 319.1 1388.1 318 1388.3 316.1L1392.2 277.2 1407.1 288.4 1405.2 308.1C1405 309.4 1406.8 311.5 1408.7 311.7 1410.6 311.9 1412 310.1 1412.2 308.8L1413.8 292.9 1431.1 305.6C1431.8 305.6 1431.8 305.6 1432.4 305.7 1433.7 305.8 1435 305.3 1435.7 304.7 1436.6 302.9 1436.1 300.9 1434.9 300.1ZM1338.6 272.6L1334.6 274.1 1331.6 271.9 1305.8 253.2 1302.8 251 1303.2 247.2 1306.3 216 1306.7 212.1 1310 210.5 1339 197.3 1342.4 195.7 1346 198 1371.2 216.6 1374.8 218.9 1374.4 222.7 1371.3 253.9 1370.9 257.8 1366.9 259.3 1338.6 272.6Z" fill="rgba(254, 254, 255, 1)"></path><path d="M344.3 229.3L319.6 235.8 311.6 230.9 319.9 228.8C320.9 228.8 321.2 227.8 321.2 226.9 320.9 226.2 320 225.6 319.3 225.9L307.8 228.7 299.8 224.1 307.9 219.7 319.4 223C319.4 223 319.7 223 319.7 223 320.3 223 321 222.4 321.3 221.7 321.3 220.8 321 220.1 320 219.8L311.7 217.5 319.8 213.1 344.3 219.7C344.3 219.7 344.7 220 344.7 220 345.3 220 345.9 219.4 346.3 218.7 346.6 217.8 346 216.8 345 216.8L323.6 210.9 333.3 205.2 342.8 207.8C342.8 207.8 342.8 207.8 343.2 207.8 343.8 207.8 344.4 207.5 344.8 206.9 344.8 205.9 344.5 205 343.5 204.6L337.1 203 344.2 198.9C345.2 198.6 345.2 197.6 344.9 197 344.5 196 343.6 195.7 342.6 196.3L335.5 200.1 337.5 194C337.5 193.1 337.2 192.1 336.3 192.1 335.3 191.8 334.7 192.1 334.3 193L331.7 202.6 322 208 328 186.3C328.3 185.6 327.7 184.7 326.7 184.3 326.1 184.3 325.1 184.7 324.8 185.6L318.2 210.2 310.1 214.6 312.5 206.3C312.8 205.3 312.1 204.7 311.2 204.4 310.6 204 309.6 204.7 309.3 205.3L306.3 216.8 298.2 221.5 298.3 212.3 306.7 204C307.4 203.4 307.4 202.4 306.7 201.8 306.4 201.1 305.1 201.1 304.5 201.8L298.4 207.8 298.4 198.5 316.8 180.7C317.5 180.1 317.5 179.1 316.8 178.5 316.2 177.9 315.2 177.8 314.6 178.5L298.5 194 298.6 183.1 305.7 176.2C306.3 175.5 306.3 174.6 305.7 173.9 305 173.3 304.1 173.3 303.4 173.9L298.6 178.3 298.7 170.3C298.7 169.4 298 168.7 297.1 168.7 296.1 168.7 295.5 169.4 295.5 170.3L295.4 178.3 291 173.8C290.3 173.2 289.4 173.2 288.7 173.8S288.1 175.4 288.7 176L295.4 182.8 295.3 194 279.7 178.2C279.1 177.5 278.1 177.5 277.5 178.2 276.8 178.8 276.8 179.8 277.5 180.4L295.2 198.5 295.2 207.8 289.1 201.6C288.5 201 287.5 201 286.9 201.6 286.2 202.2 286.2 203.2 286.9 203.9L295.1 212.2 295 221.2 287.4 216.7 284.3 205.1C284 204.5 283 203.8 282.4 204.1 281.4 204.4 281.1 205.1 281.1 206L283.3 214.4 275.6 209.8 269.1 185.1C268.8 184.2 268.2 183.9 267.2 183.8 266.2 184.2 265.9 185.1 265.9 185.8L271.5 207.6 261.9 201.7 259.4 192.4C259.5 191.5 258.5 191.1 257.5 191.1 256.9 191.4 256.2 192.4 256.6 193.4L258.1 199.4 251.1 195.6C250.5 194.9 249.5 195.2 248.9 196.2 248.5 196.8 248.8 197.8 249.5 198.1L256.5 202.3 250.1 203.9C249.1 204.2 248.8 205.1 249.1 205.8 249.1 206.7 249.7 207.1 250.4 207.1 250.7 207.1 250.7 207.1 251 207.1L260.3 204.6 269.9 210.4 248.4 216C247.4 216 247.1 217 247.1 217.9 247.4 218.6 248 218.9 248.7 218.9 249 218.9 249 218.9 249 218.9L274 212.7 281.6 217.2 273.3 219.4C272.3 219.7 272 220.4 272 221.3 272.3 222 273 222.6 273.6 222.6 273.9 222.6 273.9 222.6 274.2 222.6L285.8 219.5 293.4 224.1 285.7 228.5 274.2 225.5C273.3 225.2 272.3 225.8 272 226.4 272 227.4 272.3 228.4 273.2 228.4L281.5 230.7 273.8 235.4 248.9 228.5C248.3 228.2 247.3 228.8 247 229.4 247 230.4 247.3 231.4 248.2 231.7L269.6 237.6 260 243 250.7 240.3C249.8 240 248.8 240.7 248.8 241.6 248.5 242.3 248.8 243.2 249.7 243.5L256.1 245.2 249 249.3C248.4 249.6 248.1 250.6 248.4 251.5 248.7 251.9 249.3 252.2 250 252.2 250 252.2 250.3 252.2 250.6 252.2L257.7 248.1 256 254.5C255.7 255.1 256.4 256.1 257 256.4 257.3 256.4 257.3 256.4 257.3 256.4 258.3 256.4 258.9 255.8 258.9 255.1L261.6 245.9 271.2 240.2 265.3 261.9C265.3 262.9 265.6 263.5 266.5 263.8 266.5 263.8 266.8 263.8 266.8 263.8 267.5 263.9 268.1 263.5 268.5 262.6L275.4 238 283.1 233.6 280.8 241.9C280.8 242.8 281.1 243.8 282.1 243.8 282.1 244.1 282.4 244.1 282.4 244.1 283 244.1 283.7 243.5 284 242.9L287 231.4 295 227 294.9 235.9 286.5 244.2C285.9 244.8 285.9 246.1 286.5 246.7 287.1 247.1 288.1 247.1 288.8 246.7L294.9 240.4 294.8 249.7 276.7 267.4C276.1 268.1 276.1 269 276.7 269.7 277.4 270.3 278.3 270.3 279 269.7L294.8 254.2 294.7 265.4 287.9 272C287.3 272.7 287.2 273.6 287.9 274.3S289.5 274.9 290.1 274.3L294.6 269.8 294.6 277.8C294.6 278.8 295.2 279.4 296.2 279.5 297.1 279.5 297.8 278.8 297.8 277.9L297.8 269.9 302.6 274.4C302.9 274.7 303.2 275 303.6 275 303.9 275 304.5 274.7 304.8 274.4 305.5 273.8 305.5 272.8 304.9 272.2L297.9 265.4 298 254.2 313.8 270C314.2 270.3 314.5 270.6 314.8 270.6 315.1 270.7 315.8 270.3 316.1 270 316.7 269.4 316.7 268.4 316.1 267.8L298 249.7 298.1 240.4 304.1 246.9C304.4 247.2 305.1 247.2 305.4 247.2 305.7 247.2 306 247.2 306.4 246.9 307 246.3 307 245 306.4 244.7L298.1 235.9 298.2 227 306.2 231.5 308.9 243.1C309.3 243.7 309.9 244.4 310.5 244.4 310.9 244.4 310.9 244.4 310.9 244.1 311.8 244.1 312.5 243.1 312.2 242.1L310 233.8 317.9 238.4 324.1 263.4C324.4 264 325.1 264.3 325.7 264.3 326 264.3 326 264.3 326 264.3 327 264 327.7 263.4 327.3 262.4L321.8 240.6 331.3 246.5 333.8 255.8C334.1 256.7 334.7 257.1 335.4 257.1 335.4 257.1 335.7 257.1 335.7 257.1 336.7 256.8 337 255.8 337 255.2L335.1 248.7 342.1 253C342.5 253 342.8 253 343.1 253 343.4 253 344.1 252.7 344.4 252.3 344.7 251.4 344.7 250.4 343.8 250.1L336.8 245.9 343.2 244.3C344.1 244 344.5 243.1 344.5 242.4 344.2 241.5 343.2 241.1 342.2 241.1L332.9 243.6 323.4 238.1 344.9 232.5C345.8 232.2 346.5 231.2 346.2 230.6 345.9 229.6 345.2 229 344.3 229.3Z" fill="rgba(254, 254, 255, 1)"></path><path d="M648.1 460.9L655.2 447.6 660.8 455.9C661.4 456.9 662.8 457.3 664.2 456.7 665.2 455.7 665.6 454.3 665 453.3L657.8 442.1 664.4 429.8 678.9 452.7C680 454.1 681.4 454.5 682.3 453.5 683.8 452.9 684.2 451.5 683.1 450.1L667.1 424.9 672.8 413.6 702 412.2 708.2 421.5 693.2 449.6C693.2 450.1 693.3 450.6 693.3 451.1 693.3 451.5 693.8 452.5 694.3 452.9 695.8 453.8 697.2 453.3 697.6 451.8L711.3 426.2 718.6 437.9 712 451.1C711.5 451.2 711.6 451.6 711.6 452.1 711.6 453.1 712.2 454 713.1 454.4 714.1 454.9 715.5 454.3 716.5 453.3L721.7 442.5 731 457C731.6 457.9 733 458.3 734.4 457.8 735.4 456.8 735.8 455.3 735.2 454.4L726.4 440.9 736.5 440.4C737.9 440.3 738.8 438.8 738.8 437.9 738.7 436.4 737.7 435 736.3 435.1L723.3 435.7 716 424 742.9 422.8C744.3 422.7 745.2 421.7 745.2 420.3 745.1 418.8 744.1 417.9 742.7 418L712.9 419.4 706.2 409.6 719.9 383.5 730.9 383 747.5 408.6C748.1 410 750 410.4 750.9 409.4 752.3 408.9 752.3 407.4 751.7 406L736.7 382.7 750.6 382.1 757.9 393.7C758.4 394.7 760.3 395.1 761.3 394.5S762.6 392.1 762.1 390.7L756.4 381.8 773.1 381C774.6 380.9 775.5 379.5 775.4 378 775.4 377.1 774.3 375.7 772.9 375.7L756.1 376.5 760.9 366.7C761.4 365.7 761.3 364.3 759.8 363.4 758.8 362.9 756.9 363.5 756.5 364.5L750.4 376.8 736.4 377.4 749.2 352.8C749.6 351.3 749.6 349.9 748.1 349 747.1 348.6 745.2 349.2 744.8 350.1L730.7 377.7 719.7 378.2 703.6 353.5 709.4 343.1 739.1 341.8C740.5 341.7 741.5 340.7 741.4 339.2 741.3 337.8 740.3 336.4 738.9 336.5L712 337.7 718.2 325.4 731.1 324.8C732.5 324.8 733.5 323.8 733.4 322.3 733.3 320.9 732.3 320 730.9 320L720.8 320.5 728.3 306.2C728.7 305.2 728.2 303.3 727.2 302.9 725.7 302.5 724.3 302.6 723.9 304L715.9 318.8 709.7 309C708.7 308.1 707.2 307.7 706.3 308.2 705.4 308.7 704.9 309.7 705 310.7 705 310.7 705 311.2 705.5 311.6L713.3 324.2 707.1 336.5 691.1 312.3C690.6 310.9 689.1 310.5 687.7 311.5 687.3 312 686.8 312.5 686.8 313.4 686.9 313.9 686.9 314.4 686.9 314.9L704.5 341.4 699.2 351.3 669.9 352.7 663.2 341.9 676.8 315.4C677.7 313.9 677.2 312.5 675.7 312 674.7 311.1 673.3 311.7 672.4 313.2L660.1 337.3 652.3 325.6 658.5 313.8C658.9 312.8 658.4 311.4 657.4 310.5 655.9 310.1 654.5 310.2 654.1 311.6L649.2 320.5 640.9 307.9C640.4 306.5 638.9 306.6 637.5 307.1 637.1 307.6 636.6 308.6 636.7 309.5 636.7 309.5 636.7 310 636.7 310.5L645.5 324 633.5 324.6C632.6 324.6 631.2 325.7 631.3 327.1 631.3 328.5 632.8 329.4 633.8 329.4L648.6 328.7 656.4 340.3 627.1 341.7C625.7 341.8 624.8 343.3 624.9 344.7S625.9 347 627.4 347L659.5 345.5 665.7 355.3 652.1 381.4 639.6 382 623 355.8C622 354.9 620.5 354.5 619.1 355.1 618.7 355.6 618.2 356.5 618.3 357.5 618.3 358 618.3 358.5 618.8 358.9L633.8 382.2 619.9 382.9 612.2 371.2C611.7 370.3 610.2 369.9 608.8 370.4 607.9 371.4 607.5 372.9 608 373.8L614.2 383.2 598.8 383.9C597.9 383.9 596.5 385.4 596.6 386.4 596.6 387.8 598.1 389.2 599.1 389.1L614.4 388.4 609.1 397.8C609.1 398.3 609.1 398.8 609.2 399.2 609.2 400.2 609.7 401.1 610.2 401.6 611.7 402 613.1 401.5 614 400.5L620.2 388.2 634.1 387.5 621.3 412.1C620.4 413.6 621 415 621.9 415.5 623.4 416.4 624.8 415.8 625.8 414.8L639.8 387.2 652.3 386.7 668.4 411.4 663.1 421.7 631 423.2C629.5 423.3 628.6 424.3 628.7 425.7 628.7 427.2 629.7 428.1 631.2 428L660.4 426.6 653.8 439 638.9 439.7C638 439.7 636.6 441.2 636.7 442.7 636.7 444.1 638.2 445 639.2 444.9L651.2 444.4 643.7 458.7C643.7 459.1 643.7 459.1 643.7 459.6 643.8 460.6 644.3 461.5 644.8 462 646.2 462.4 647.7 461.8 648.1 460.9ZM658.1 386.4L656.5 383.6 657.8 381.1 668.8 359.9 670.2 357.5 673 357.3 696.5 356.2 699.4 356.1 701 358.4 713.9 378.5 715.5 380.8 714.2 383.8 703.1 404.5 701.8 407.4 698.9 407.5 675.4 408.6 672.6 408.8 671 406 658.1 386.4Z" fill="rgba(254, 254, 255, 1)"></path><path d="M1324 575.4L1322 560.4 1331.5 564C1332.5 564.4 1333.9 563.9 1334.7 562.7 1334.9 561.3 1334.4 559.9 1333.4 559.4L1321 554.5 1319.3 540.6 1344.4 550.8C1346 551.4 1347.4 550.9 1347.6 549.5 1348.4 548.2 1347.9 546.8 1346.3 546.3L1318.6 535.1 1316.7 522.5 1339.7 504.5 1350.2 508.5 1354.2 540.1C1354.5 540.4 1354.8 540.8 1355.1 541.2 1355.4 541.6 1356.4 542 1357 542.1 1358.8 542 1359.6 540.7 1359.1 539.3L1355.4 510.5 1368.1 515.7 1370.4 530.4C1370 530.7 1370.3 531.1 1370.6 531.4 1371.2 532.2 1372.2 532.6 1373.2 532.4 1374.3 532.2 1375.1 531 1375.3 529.6L1373.3 517.7 1389.3 524.1C1390.3 524.6 1391.7 524.1 1392.5 522.8 1392.7 521.4 1392.2 520 1391.2 519.6L1376.2 513.6 1384.1 507.4C1385.3 506.5 1385.1 504.8 1384.5 504.1 1383.6 502.9 1382 502.4 1380.9 503.3L1370.7 511.3 1358 506 1379.1 489.4C1380.3 488.5 1380.4 487.1 1379.5 486 1378.6 484.9 1377.3 484.7 1376.2 485.6L1352.7 504 1341.6 499.9 1337.6 470.7 1346.3 463.9 1374.7 475.2C1375.9 476 1377.8 475.2 1377.9 473.9 1378.8 472.6 1377.9 471.5 1376.6 470.6L1350.8 460.3 1361.8 451.7 1374.5 457C1375.4 457.5 1377.3 456.7 1377.7 455.7S1377.4 452.9 1376.1 452.1L1366.3 448.2 1379.5 437.8C1380.7 436.9 1380.5 435.2 1379.6 434.1 1379 433.3 1377.4 432.8 1376.3 433.7L1363.1 444 1361.3 433.2C1361.1 432.2 1360.2 431 1358.5 431.2 1357.4 431.4 1356.2 432.9 1356.4 434L1358.5 447.6 1347.6 456.2 1343.7 428.7C1343.2 427.3 1342.3 426.1 1340.6 426.3 1339.5 426.5 1338.3 428.1 1338.5 429.1L1343 459.7 1334.4 466.5 1306.9 455.7 1305.6 443.9 1329 425.6C1330.2 424.7 1330.3 423.3 1329.5 422.2 1328.6 421.1 1326.9 420.5 1325.8 421.4L1304.6 438 1302.5 424.4 1312.7 416.4C1313.8 415.5 1314 414.2 1313.1 413 1312.2 411.9 1310.9 411.7 1309.7 412.6L1301.8 418.9 1299.6 402.9C1299.4 401.8 1297.9 400.6 1296.8 400.8 1295.4 401.3 1294.3 402.2 1294.8 403.7L1296.9 420.3 1286.1 415.9C1284.8 415.8 1283.3 416.3 1282.9 417.3 1282.4 418.2 1282.6 419.3 1283.2 420 1283.2 420 1283.5 420.4 1284.2 420.5L1297.9 426.2 1300 439.8 1272.9 429.4C1271.6 428.5 1270.2 429.1 1269.6 430.7 1269.5 431.4 1269.5 432.1 1270.1 432.8 1270.3 433.2 1270.6 433.6 1270.9 433.9L1300.7 445.4 1302.1 456.5 1279 474.6 1267.3 469.7 1263 440.2C1262.9 438.4 1261.6 437.6 1260.2 438.1 1258.8 437.9 1258 439.2 1258.1 440.9L1262.1 467.7 1249 462.7 1247.2 449.5C1247 448.5 1245.7 447.6 1244.4 447.5 1242.9 448 1241.8 448.9 1242.3 450.3L1243.5 460.4 1229.4 454.9C1228.2 454.1 1227 455 1226.2 456.2 1226.1 456.9 1226.3 458 1226.9 458.7 1226.9 458.7 1227.2 459.1 1227.5 459.5L1242.5 465.4 1233.1 472.8C1232.3 473.4 1231.8 475 1232.7 476.2 1233.6 477.3 1235.3 477.2 1236.1 476.6L1247.8 467.4 1260.8 472.4 1237.8 490.5C1236.7 491.3 1236.8 493.1 1237.7 494.2S1239.9 495.5 1241.1 494.6L1266.4 474.8 1277.1 479.1 1281.1 508.3 1271.3 516 1242.6 504.4C1241.3 504.2 1239.8 504.7 1239 506 1238.9 506.7 1239.1 507.7 1239.7 508.5 1240 508.8 1240.3 509.2 1241 509.3L1266.8 519.6 1255.8 528.2 1242.7 523.2C1241.8 522.7 1240.3 523.2 1239.5 524.5 1239.3 525.8 1239.8 527.3 1240.8 527.7L1251.3 531.7 1239.2 541.2C1238.4 541.8 1238.2 543.8 1238.8 544.6 1239.7 545.7 1241.7 546 1242.5 545.4L1254.5 535.9 1255.6 546.6C1255.9 547 1256.2 547.4 1256.5 547.8 1257.1 548.5 1258.1 549 1258.8 549 1260.2 548.5 1261 547.3 1261.2 545.9L1259.1 532.3 1270 523.7 1273.9 551.2C1274 552.9 1275.3 553.8 1276.3 553.6 1278.1 553.4 1278.9 552.2 1279.1 550.8L1274.6 520.2 1284.4 512.5 1311.8 523.3 1313.5 534.8 1288.2 554.6C1287 555.5 1286.9 556.9 1287.8 558 1288.7 559.1 1290 559.3 1291.1 558.4L1314.2 540.3 1315.9 554.2 1304.2 563.4C1303.5 564 1303.2 566 1304.1 567.2 1305 568.3 1306.7 568.2 1307.5 567.6L1316.9 560.2 1319.1 576.2C1319.4 576.5 1319.4 576.5 1319.7 576.9 1320.3 577.7 1321.2 578.1 1321.9 578.2 1323.3 577.7 1324.2 576.4 1324 575.4ZM1288.9 508.9L1286 507.5 1285.6 504.8 1282.3 481.1 1282 478.3 1284.3 476.6 1302.8 462.1 1305 460.3 1307.6 461.3 1329.8 470.1 1332.4 471.1 1333.1 474.3 1336.1 497.5 1336.7 500.7 1334.5 502.5 1316 517 1313.7 518.8 1310.8 517.4 1288.9 508.9Z" fill="rgba(254, 254, 255, 1)"></path></g><defs><mask id="SvgjsMask1006"><rect width="1440" height="560" fill="#ffffff"></rect></mask><filter id="SvgjsFilter1007"><feGaussianBlur stdDeviation="1"></feGaussianBlur></filter></defs></svg>